{
    "asset" : {
        "copyright" : "Created by YDm",
        "generator" : "Khronos glTF Blender I/O v1.6.16",
        "version" : "2.0"
    },
    "scene" : 0,
    "scenes" : [
        {
            "name" : "Scene",
            "nodes" : [
                0,
                1
            ]
        }
    ],
    "nodes" : [
        {
            "mesh" : 0,
            "name" : "Carcass",
            "translation" : [
                0,
                60,
                0
            ]
        },
        {
            "mesh" : 1,
            "name" : "Drawer",
            "translation" : [
                1.5,
                10,
                0
            ]
        }
    ],
    "materials" : [
        {
            "doubleSided" : true,
            "name" : "Black",
            "pbrMetallicRoughness" : {
                "baseColorFactor" : [
                    0,
                    0,
                    0,
                    1
                ],
                "metallicFactor" : 0,
                "roughnessFactor" : 0.4000000059604645
            }
        },
        {
            "doubleSided" : true,
            "name" : "Timber",
            "pbrMetallicRoughness" : {
                "baseColorTexture" : {
                    "index" : 0
                },
                "metallicFactor" : 0,
                "roughnessFactor" : 0.5
            }
        }
    ],
    "meshes" : [
        {
            "name" : "Carcass",
            "primitives" : [
                {
                    "attributes" : {
                        "POSITION" : 0,
                        "NORMAL" : 1,
                        "TEXCOORD_0" : 2
                    },
                    "indices" : 3,
                    "material" : 0
                }
            ]
        },
        {
            "name" : "Drawer",
            "primitives" : [
                {
                    "attributes" : {
                        "POSITION" : 4,
                        "NORMAL" : 5,
                        "TEXCOORD_0" : 6
                    },
                    "indices" : 7,
                    "material" : 1
                },
                {
                    "attributes" : {
                        "POSITION" : 8,
                        "NORMAL" : 9,
                        "TEXCOORD_0" : 10
                    },
                    "indices" : 11,
                    "material" : 0
                }
            ]
        }
    ],
    "textures" : [
        {
            "sampler" : 0,
            "source" : 0
        }
    ],
    "images" : [
        {
            "bufferView" : 8,
            "mimeType" : "image/jpeg",
            "name" : "Oak"
        }
    ],
    "accessors" : [
        {
            "bufferView" : 0,
            "componentType" : 5126,
            "count" : 1867,
            "max" : [
                900,
                339,
                0
            ],
            "min" : [
                0,
                -60,
                -660
            ],
            "type" : "VEC3"
        },
        {
            "bufferView" : 1,
            "componentType" : 5126,
            "count" : 1867,
            "type" : "VEC3"
        },
        {
            "bufferView" : 2,
            "componentType" : 5126,
            "count" : 1867,
            "type" : "VEC2"
        },
        {
            "bufferView" : 3,
            "componentType" : 5123,
            "count" : 3543,
            "type" : "SCALAR"
        },
        {
            "bufferView" : 4,
            "componentType" : 5126,
            "count" : 24,
            "max" : [
                897.5,
                387.5,
                22
            ],
            "min" : [
                0,
                0,
                0
            ],
            "type" : "VEC3"
        },
        {
            "bufferView" : 5,
            "componentType" : 5126,
            "count" : 24,
            "type" : "VEC3"
        },
        {
            "bufferView" : 6,
            "componentType" : 5126,
            "count" : 24,
            "type" : "VEC2"
        },
        {
            "bufferView" : 7,
            "componentType" : 5123,
            "count" : 36,
            "type" : "SCALAR"
        },
        {
            "bufferView" : 9,
            "componentType" : 5126,
            "count" : 72,
            "max" : [
                873.5,
                341,
                0
            ],
            "min" : [
                23.5,
                75,
                -600
            ],
            "type" : "VEC3"
        },
        {
            "bufferView" : 10,
            "componentType" : 5126,
            "count" : 72,
            "type" : "VEC3"
        },
        {
            "bufferView" : 11,
            "componentType" : 5126,
            "count" : 72,
            "type" : "VEC2"
        },
        {
            "bufferView" : 12,
            "componentType" : 5123,
            "count" : 132,
            "type" : "SCALAR"
        }
    ],
    "bufferViews" : [
        {
            "buffer" : 0,
            "byteLength" : 22404,
            "byteOffset" : 0
        },
        {
            "buffer" : 0,
            "byteLength" : 22404,
            "byteOffset" : 22404
        },
        {
            "buffer" : 0,
            "byteLength" : 14936,
            "byteOffset" : 44808
        },
        {
            "buffer" : 0,
            "byteLength" : 7086,
            "byteOffset" : 59744
        },
        {
            "buffer" : 0,
            "byteLength" : 288,
            "byteOffset" : 66832
        },
        {
            "buffer" : 0,
            "byteLength" : 288,
            "byteOffset" : 67120
        },
        {
            "buffer" : 0,
            "byteLength" : 192,
            "byteOffset" : 67408
        },
        {
            "buffer" : 0,
            "byteLength" : 72,
            "byteOffset" : 67600
        },
        {
            "buffer" : 0,
            "byteLength" : 901160,
            "byteOffset" : 67672
        },
        {
            "buffer" : 0,
            "byteLength" : 864,
            "byteOffset" : 968832
        },
        {
            "buffer" : 0,
            "byteLength" : 864,
            "byteOffset" : 969696
        },
        {
            "buffer" : 0,
            "byteLength" : 576,
            "byteOffset" : 970560
        },
        {
            "buffer" : 0,
            "byteLength" : 264,
            "byteOffset" : 971136
        }
    ],
    "samplers" : [
        {
            "magFilter" : 9729,
            "minFilter" : 9987
        }
    ],
    "buffers" : [
        {
            "byteLength" : 971400,
            "uri" : "data:application/octet-stream;base64,"
        }
    ]
}
